<svg width="21" height="20" viewBox="0 0 21 20" fill="none" xmlns="http://www.w3.org/2000/svg">
<path opacity="0.4" d="M13.992 1.6665H7.00866C3.97533 1.6665 2.16699 3.47484 2.16699 6.50817V13.4832C2.16699 16.5248 3.97533 18.3332 7.00866 18.3332H13.9837C17.017 18.3332 18.8253 16.5248 18.8253 13.4915V6.50817C18.8337 3.47484 17.0253 1.6665 13.992 1.6665Z" fill="#6664FF"/>
<path d="M14.1839 6.50817V13.4915C14.1839 14.0248 13.7505 14.4582 13.2172 14.4582C12.6755 14.4582 12.2422 14.0248 12.2422 13.4915V6.50817C12.2422 5.97484 12.6755 5.5415 13.2172 5.5415C13.7505 5.5415 14.1839 5.97484 14.1839 6.50817Z" fill="#6664FF"/>
<path d="M8.75905 10.7748V13.4914C8.75905 14.0248 8.32572 14.4581 7.78405 14.4581C7.25072 14.4581 6.81738 14.0248 6.81738 13.4914V10.7748C6.81738 10.2414 7.25072 9.80811 7.78405 9.80811C8.32572 9.80811 8.75905 10.2414 8.75905 10.7748Z" fill="#6664FF"/>
</svg>
