<svg width="20" height="20" viewBox="0 0 20 20" fill="none" xmlns="http://www.w3.org/2000/svg">
<path opacity="0.4" d="M17.083 8.4915H14.6747C12.6997 8.4915 11.0913 6.88317 11.0913 4.90817V2.49984C11.0913 2.0415 10.7163 1.6665 10.258 1.6665H6.72467C4.15801 1.6665 2.08301 3.33317 2.08301 6.30817V13.6915C2.08301 16.6665 4.15801 18.3332 6.72467 18.3332H13.2747C15.8413 18.3332 17.9163 16.6665 17.9163 13.6915V9.32484C17.9163 8.8665 17.5413 8.4915 17.083 8.4915Z" fill="#6664FF"/>
<path d="M13.1667 1.84158C12.8251 1.49991 12.2334 1.73325 12.2334 2.20825V5.11658C12.2334 6.33325 13.2667 7.34158 14.5251 7.34158C15.3167 7.34991 16.4167 7.34991 17.3584 7.34991C17.8334 7.34991 18.0834 6.79158 17.7501 6.45825C16.5501 5.24991 14.4001 3.07491 13.1667 1.84158Z" fill="#6664FF"/>
<path d="M11.25 11.4585H6.25C5.90833 11.4585 5.625 11.1752 5.625 10.8335C5.625 10.4918 5.90833 10.2085 6.25 10.2085H11.25C11.5917 10.2085 11.875 10.4918 11.875 10.8335C11.875 11.1752 11.5917 11.4585 11.25 11.4585Z" fill="#6664FF"/>
<path d="M9.58333 14.7915H6.25C5.90833 14.7915 5.625 14.5082 5.625 14.1665C5.625 13.8248 5.90833 13.5415 6.25 13.5415H9.58333C9.925 13.5415 10.2083 13.8248 10.2083 14.1665C10.2083 14.5082 9.925 14.7915 9.58333 14.7915Z" fill="#6664FF"/>
</svg>
