<svg width="25" height="24" viewBox="0 0 25 24" fill="none" xmlns="http://www.w3.org/2000/svg">
<path opacity="0.4" d="M20.9002 16.3298C20.6202 17.0798 20.0302 17.6498 19.2602 17.9098C18.1802 18.2698 17.0702 18.5398 15.9502 18.7298C15.8402 18.7498 15.7302 18.7698 15.6202 18.7798C15.4402 18.8098 15.2602 18.8298 15.0802 18.8498C14.8602 18.8798 14.6302 18.8998 14.4002 18.9198C13.7702 18.9698 13.1502 18.9998 12.5202 18.9998C11.8802 18.9998 11.2402 18.9698 10.6102 18.9098C10.3402 18.8898 10.0802 18.8598 9.8202 18.8198C9.6702 18.7998 9.5202 18.7798 9.3802 18.7598C9.2702 18.7398 9.1602 18.7298 9.0502 18.7098C7.9402 18.5298 6.8402 18.2598 5.7702 17.8998C4.9702 17.6298 4.3602 17.0598 4.0902 16.3298C3.8202 15.6098 3.9202 14.7698 4.3502 14.0498L5.4802 12.1698C5.7202 11.7598 5.9402 10.9698 5.9402 10.4898V8.6298C5.9402 4.9998 8.8902 2.0498 12.5202 2.0498C16.1402 2.0498 19.0902 4.9998 19.0902 8.6298V10.4898C19.0902 10.9698 19.3102 11.7598 19.5602 12.1698L20.6902 14.0498C21.1002 14.7498 21.1802 15.5698 20.9002 16.3298Z" fill="#292D32"/>
<path d="M12.5002 10.7601C12.0802 10.7601 11.7402 10.4201 11.7402 10.0001V6.90014C11.7402 6.48014 12.0802 6.14014 12.5002 6.14014C12.9202 6.14014 13.2602 6.48014 13.2602 6.90014V10.0001C13.2502 10.4201 12.9102 10.7601 12.5002 10.7601Z" fill="#292D32"/>
<path d="M15.3297 20.01C14.9097 21.17 13.7997 22 12.4997 22C11.7097 22 10.9297 21.68 10.3797 21.11C10.0597 20.81 9.81969 20.41 9.67969 20C9.80969 20.02 9.93969 20.03 10.0797 20.05C10.3097 20.08 10.5497 20.11 10.7897 20.13C11.3597 20.18 11.9397 20.21 12.5197 20.21C13.0897 20.21 13.6597 20.18 14.2197 20.13C14.4297 20.11 14.6397 20.1 14.8397 20.07C14.9997 20.05 15.1597 20.03 15.3297 20.01Z" fill="#292D32"/>
</svg>
